HIERARCHY
ROOT Hips
{
  OFFSET 55.6403 95.4507 -10.1699
  CHANNELS 6 Xposition Yposition Zposition Zrotation Xrotation Yrotation
  JOINT spine
  {
    OFFSET 0 7.96568 0.458067
    CHANNELS 3 Zrotation Xrotation Yrotation
    JOINT spine1
    {
      OFFSET 0 10.2431 0
      CHANNELS 3 Zrotation Xrotation Yrotation
      JOINT spine2
      {
        OFFSET 0 9.81475 0
        CHANNELS 3 Zrotation Xrotation Yrotation
        JOINT Neck
        {
          OFFSET 0 25.1986 1.20138
          CHANNELS 3 Zrotation Xrotation Yrotation
          JOINT Head
          {
            OFFSET 0 7.61315 0
            CHANNELS 3 Zrotation Xrotation Yrotation
            End Site
            {
              OFFSET 0 18.4281 -6.07733
            }
          }
        }
        JOINT RightShoulder
        {
          OFFSET -4.1327 10.5992 -0.575451
          CHANNELS 3 Zrotation Xrotation Yrotation
          JOINT RightArm
          {
            OFFSET 0 13.9018 0
            CHANNELS 3 Zrotation Xrotation Yrotation
            JOINT RightArmRoll
            {
              OFFSET 0 7.01789 0
              CHANNELS 3 Zrotation Xrotation Yrotation
              JOINT RightForeArm
              {
                OFFSET 0 20.4406 0
                CHANNELS 3 Zrotation Xrotation Yrotation
                JOINT RightForeArmRoll
                {
                  OFFSET 0 7.87516 0
                  CHANNELS 3 Zrotation Xrotation Yrotation
                  JOINT RightHand
                  {
                    OFFSET 0 15.8037 0
                    CHANNELS 3 Zrotation Xrotation Yrotation
                    End Site
                    {
                      OFFSET 0 0 0
                    }
                  }
                }
              }
            }
          }
        }
        JOINT LeftShoulder
        {
          OFFSET 4.1327 10.5992 -0.575451
          CHANNELS 3 Zrotation Xrotation Yrotation
          JOINT LeftArm
          {
            OFFSET 0 13.9018 0
            CHANNELS 3 Zrotation Xrotation Yrotation
            JOINT LeftArmRoll
            {
              OFFSET 0 7.01789 0
              CHANNELS 3 Zrotation Xrotation Yrotation
              JOINT LeftForeArm
              {
                OFFSET 0 20.4406 0
                CHANNELS 3 Zrotation Xrotation Yrotation
                JOINT LeftForeArmRoll
                {
                  OFFSET 0 7.87515 0
                  CHANNELS 3 Zrotation Xrotation Yrotation
                  JOINT LeftHand
                  {
                    OFFSET 0 15.8037 0
                    CHANNELS 3 Zrotation Xrotation Yrotation
                    End Site
                    {
                      OFFSET 0 0 0
                    }
                  }
                }
              }
            }
          }
        }
      }
    }
  }
  JOINT RightUpLeg
  {
    OFFSET -7.06048 -1.2947 -1.08609
    CHANNELS 3 Zrotation Xrotation Yrotation
    JOINT RightUpLegRoll
    {
      OFFSET 0 18.5308 0
      CHANNELS 3 Zrotation Xrotation Yrotation
      JOINT RightLeg
      {
        OFFSET 0 -22.9476 0
        CHANNELS 3 Zrotation Xrotation Yrotation
        JOINT RightLegRoll
        {
          OFFSET 0 23.0226 0
          CHANNELS 3 Zrotation Xrotation Yrotation
          JOINT RightFoot
          {
            OFFSET 0 19.1625 0
            CHANNELS 3 Zrotation Xrotation Yrotation
            JOINT RightToeBase
            {
              OFFSET 0 16.0188 0
              CHANNELS 3 Zrotation Xrotation Yrotation
              End Site
              {
                OFFSET 0.00678979 7.75782 -0.894207
              }
            }
          }
        }
      }
    }
  }
  JOINT LeftUpLeg
  {
    OFFSET 7.06048 -1.2947 -1.08609
    CHANNELS 3 Zrotation Xrotation Yrotation
    JOINT LeftUpLegRoll
    {
      OFFSET 0 18.5309 0
      CHANNELS 3 Zrotation Xrotation Yrotation
      JOINT LeftLeg
      {
        OFFSET 0 22.9475 0
        CHANNELS 3 Zrotation Xrotation Yrotation
        JOINT LeftLegRoll
        {
          OFFSET 0 23.2355 0
          CHANNELS 3 Zrotation Xrotation Yrotation
          JOINT LeftFoot
          {
            OFFSET 0 18.9496 0
            CHANNELS 3 Zrotation Xrotation Yrotation
            JOINT LeftToeBase
            {
              OFFSET 0 16.0188 0
              CHANNELS 3 Zrotation Xrotation Yrotation
              End Site
              {
                OFFSET -0.0304289 7.75782 -0.894206
              }
            }
          }
        }
      }
    }
  }
}
MOTION
Frames: 14
Frame Time: 0.00208333
51.9551 96.7297 8.08605 -0.530058 -2.12177 0.816561 0.404163 -0.249318 -0.265117 0.788432 3.50212 -0.557724 0.796088 5.1471 -0.571422 -1.57 12.3135 0.597218 1.34687 15.428 0.146745 76.9838 -4.60121 -4.00973 92.262 17.2572 14.5377 -3.69505e-006 -7.03947e-007 1.0489e-006 5.95857 13.1057 -1.65993 -7.46894e-006 -2.31496e-006 -3 8.02944 -4.9514 0.697654 -61.5066 -1.50823 1.22415 -109.09 15.7618 -4.81162 7.45443e-015 1.59028e-015 1.59028e-015 -6.00209 4.64246 1.06742 6.38952e-006 2.11069e-006 3 -8.02942 -4.95144 -0.697666 177.778 1.11307 1.69348 180 7.01521e-015 178.817 179.709 9.07384 179.396 -1.95755e-006 -6.86802e-006 0.0885178 -18.3939 67.4307 19.0773 8.12596 25.2332 -3.48325 -174.754 -0.659122 -1.82922 4.5067e-006 -1.99009e-005 -1.1486 -2.32297 -6.9152 0.0416364 3.64242e-006 -1.1545e-006 -0.0934258 18.7905 68.0486 -19.5562 -8.12468 25.2333 3.4827 
51.9378 96.7261 8.05668 -0.53083 -2.08408 0.804059 0.404163 -0.245221 -0.265179 0.789534 3.51031 -0.558716 0.797208 5.15529 -0.572438 -1.61226 12.2868 0.601536 1.37306 15.4416 0.139255 76.9462 -4.59588 -4.00526 92.3187 17.1929 14.4509 -3.69505e-006 -7.03947e-007 1.0489e-006 6.01429 13.2486 -1.67617 -7.46894e-006 -2.31496e-006 -3 8.02944 -4.9514 0.697654 -61.5047 -1.50515 1.22216 -109.096 15.6985 -4.78331 -9.0447e-015 1.59028e-015 -2.38542e-015 -6.04362 4.71288 1.07199 6.38952e-006 2.11069e-006 3 -8.02942 -4.95144 -0.697666 177.791 1.19222 1.6703 180 7.01521e-015 178.817 179.724 9.12588 179.392 -1.95755e-006 -6.86802e-006 0.0885046 -18.3888 67.4244 19.0721 8.12596 25.2332 -3.48325 -174.753 -0.588981 -1.82533 4.5067e-006 -1.99009e-005 -1.14815 -2.32025 -6.96127 0.0415904 3.64242e-006 -1.1545e-006 -0.0942319 18.7958 68.0549 -19.5619 -8.12468 25.2333 3.4827 
51.9412 96.726 8.04604 -0.531849 -2.04627 0.791264 0.404163 -0.241179 -0.265255 0.790666 3.51839 -0.559757 0.798359 5.16337 -0.573503 -1.65429 12.2593 0.606026 1.39934 15.4564 0.131991 76.9088 -4.59047 -4.00077 92.375 17.1273 14.3631 -3.69505e-006 -7.03947e-007 1.0489e-006 6.07129 13.3935 -1.69269 -7.46894e-006 -2.31496e-006 -3 8.02944 -4.9514 0.697654 -61.5023 -1.50204 1.2201 -109.101 15.634 -4.75542 -9.0447e-015 4.77083e-015 -2.38542e-015 -6.0852 4.78377 1.07656 6.38952e-006 2.11069e-006 3 -8.02942 -4.95144 -0.697666 177.804 1.27132 1.64701 180 7.01522e-015 178.818 179.739 9.17768 179.388 -1.95755e-006 -6.86802e-006 0.0884849 -18.3838 67.418 19.0669 8.12596 25.2332 -3.48325 -174.752 -0.519029 -1.82164 4.5067e-006 -1.99009e-005 -1.14771 -2.31758 -7.00695 0.0415079 3.64242e-006 -1.1545e-006 -0.095032 18.8011 68.0612 -19.5676 -8.12468 25.2333 3.4827 
51.9289 96.7231 8.04345 -0.533036 -2.00838 0.778266 0.404163 -0.237175 -0.265342 0.791819 3.5264 -0.560833 0.799532 5.17137 -0.574603 -1.69616 12.2311 0.610637 1.4257 15.472 0.124885 76.8717 -4.58502 -3.99627 92.4311 17.0609 14.2744 -3.69505e-006 -7.03947e-007 1.0489e-006 6.12921 13.5399 -1.7094 -7.46894e-006 -2.31496e-006 -3 8.02944 -4.9514 0.697654 -61.4996 -1.4989 1.21799 -109.106 15.5685 -4.72784 -2.80286e-014 -1.59028e-015 -3.97569e-015 -6.12682 4.85496 1.08112 6.38952e-006 2.11069e-006 3 -8.02942 -4.95144 -0.697666 177.818 1.3504 1.62365 180 7.01522e-015 178.819 179.754 9.22932 179.385 -1.95755e-006 -6.86802e-006 0.0884607 -18.3787 67.4116 19.0617 8.12596 25.2332 -3.48325 -174.75 -0.449209 -1.81808 4.5067e-006 -1.99009e-005 -1.14729 -2.31492 -7.05234 0.0414 3.64242e-006 -1.1545e-006 -0.0958281 18.8065 68.0676 -19.5735 -8.12468 25.2333 3.4827 
51.9212 96.7164 8.02325 -0.534311 -1.97044 0.765151 0.404162 -0.233194 -0.265436 0.792985 3.53436 -0.561928 0.800717 5.17933 -0.575723 -1.73793 12.2025 0.615315 1.4521 15.4881 0.117868 76.8347 -4.57954 -3.99178 92.4868 16.9938 14.1854 -3.69505e-006 -7.03947e-007 1.0489e-006 6.1877 13.687 -1.72626 -7.46894e-006 -2.31496e-006 -3 8.02944 -4.9514 0.697654 -61.4966 -1.49576 1.21585 -109.111 15.5025 -4.70044 -2.98177e-015 0 -0 -6.16845 4.92634 1.0857 6.38952e-006 2.11069e-006 3 -8.02942 -4.95144 -0.697666 177.832 1.42945 1.60025 180 7.01522e-015 178.82 179.769 9.28086 179.381 -1.95755e-006 -6.86802e-006 0.0884339 -18.3736 67.4053 19.0564 8.12596 25.2332 -3.48325 -174.748 -0.379463 -1.81459 4.5067e-006 -1.99009e-005 -1.14687 -2.31229 -7.09758 0.0412775 3.64242e-006 -1.1545e-006 -0.0966218 18.8119 68.074 -19.5793 -8.12468 25.2333 3.4827 
51.9167 96.7135 8.01246 -0.535595 -1.93248 0.752008 0.404162 -0.229218 -0.265531 0.794154 3.54231 -0.563028 0.801906 5.18727 -0.576848 -1.77968 12.1738 0.620011 1.47852 15.5043 0.110873 76.7977 -4.57405 -3.98728 92.5423 16.9266 14.0963 -3.69505e-006 -7.03947e-007 1.0489e-006 6.2464 13.8344 -1.74316 -7.46894e-006 -2.31496e-006 -3 8.02944 -4.9514 0.697654 -61.4935 -1.49261 1.2137 -109.116 15.4364 -4.67311 7.65321e-015 0 -0 -6.21011 4.99777 1.09027 6.38952e-006 2.11069e-006 3 -8.02942 -4.95144 -0.697666 177.846 1.50851 1.57683 180 7.01522e-015 178.82 179.784 9.33238 179.378 -1.95755e-006 -6.86802e-006 0.0884065 -18.3685 67.3989 19.0512 8.12596 25.2332 -3.48325 -174.746 -0.309737 -1.81113 4.5067e-006 -1.99009e-005 -1.14646 -2.30965 -7.14278 0.0411513 3.64242e-006 -1.1545e-006 -0.0974149 18.8174 68.0805 -19.5852 -8.12468 25.2333 3.4827 
51.9078 96.7111 8.00211 -0.536809 -1.89455 0.738924 0.404162 -0.225231 -0.265623 0.795317 3.55028 -0.564119 0.803089 5.19524 -0.577963 -1.82146 12.1454 0.62467 1.50492 15.5203 0.103832 76.7607 -4.56857 -3.98278 92.5976 16.8595 14.0076 -3.69505e-006 -7.03947e-007 1.0489e-006 6.30494 13.9814 -1.76005 -7.46894e-006 -2.31496e-006 -3 8.02944 -4.9514 0.697654 -61.4906 -1.48947 1.21157 -109.121 15.3705 -4.64571 9.93923e-015 4.77083e-015 7.95139e-016 -6.25177 5.0691 1.09485 6.38952e-006 2.11069e-006 3 -8.02942 -4.95144 -0.697666 177.86 1.58758 1.55344 180 7.01522e-015 178.821 179.799 9.38396 179.374 -1.95755e-006 -6.86802e-006 0.0883804 -18.3634 67.3925 19.046 8.12596 25.2332 -3.48325 -174.744 -0.239972 -1.80763 4.5067e-006 -1.99009e-005 -1.14605 -2.30701 -7.18806 0.0410324 3.64242e-006 -1.1545e-006 -0.0982091 18.8228 68.0869 -19.591 -8.12468 25.2333 3.4827 
51.9015 96.705 7.97823 -0.537874 -1.85668 0.725988 0.404162 -0.221216 -0.265707 0.796466 3.55831 -0.565185 0.804257 5.20327 -0.579053 -1.86336 12.1173 0.629243 1.53128 15.5357 0.0966762 76.7235 -4.56313 -3.97829 92.6528 16.7929 13.9195 -3.69505e-006 -7.03947e-007 1.0489e-006 6.36298 14.1273 -1.77685 -7.46894e-006 -2.31496e-006 -3 8.02944 -4.9514 0.697654 -61.488 -1.48634 1.20947 -109.125 15.3053 -4.61814 6.95746e-015 3.18055e-015 7.95139e-016 -6.29342 5.14021 1.09943 6.38952e-006 2.11069e-006 3 -8.02942 -4.95144 -0.697666 177.873 1.66667 1.5301 180 7.01523e-015 178.822 179.814 9.43563 179.371 -1.95755e-006 -6.86802e-006 0.0883575 -18.3583 67.3862 19.0408 8.12596 25.2332 -3.48325 -174.743 -0.170113 -1.80404 4.5067e-006 -1.99009e-005 -1.14562 -2.30435 -7.23354 0.0409318 3.64242e-006 -1.1545e-006 -0.0990064 18.8282 68.0932 -19.5968 -8.12468 25.2333 3.4827 
51.9045 96.7075 7.96899 -0.538712 -1.81891 0.713288 0.404162 -0.217157 -0.265779 0.797591 3.56643 -0.566211 0.8054 5.21138 -0.580104 -1.90543 12.09 0.633676 1.55756 15.5501 0.0893381 76.6861 -4.55775 -3.97381 92.7079 16.7272 13.8324 -3.69505e-006 -7.03947e-007 1.0489e-006 6.42014 14.2716 -1.79349 -7.46894e-006 -2.31496e-006 -3 8.02944 -4.9514 0.697654 -61.4857 -1.48324 1.20743 -109.13 15.2411 -4.59028 4.47266e-015 4.77083e-015 -0 -6.33506 5.21095 1.10401 6.38952e-006 2.11069e-006 3 -8.02942 -4.95144 -0.697666 177.887 1.74579 1.50685 180 7.01523e-015 178.823 179.829 9.4875 179.367 -1.95755e-006 -6.86802e-006 0.0883397 -18.3533 67.3798 19.0356 8.12596 25.2332 -3.48325 -174.741 -0.100102 -1.80031 4.5067e-006 -1.99009e-005 -1.14518 -2.30166 -7.27933 0.0408603 3.64242e-006 -1.1545e-006 -0.0998083 18.8336 68.0996 -19.6026 -8.12468 25.2333 3.4827 
51.8969 96.7051 7.94996 -0.539245 -1.78127 0.70091 0.404161 -0.213038 -0.265834 0.798683 3.57466 -0.567184 0.806511 5.21962 -0.581101 -1.94774 12.0638 0.637919 1.58374 15.5633 0.0817496 76.6484 -4.55244 -3.96933 92.7629 16.6627 13.7468 -3.69505e-006 -7.03947e-007 1.0489e-006 6.47606 14.4136 -1.80988 -7.46894e-006 -2.31496e-006 -3 8.02944 -4.9514 0.697654 -61.484 -1.48017 1.20547 -109.134 15.1783 -4.56199 -6.95746e-016 1.59028e-015 -0 -6.37667 5.2812 1.1086 6.38952e-006 2.11069e-006 3 -8.02942 -4.95144 -0.697666 177.901 1.82497 1.48373 180 7.01523e-015 178.823 179.844 9.53963 179.363 -1.95755e-006 -6.86802e-006 0.0883291 -18.3483 67.3735 19.0305 8.12596 25.2332 -3.48325 -174.74 -0.0298837 -1.79637 4.5067e-006 -1.99009e-005 -1.14472 -2.29893 -7.32556 0.040829 3.64242e-006 -1.1545e-006 -0.100617 18.8389 68.1058 -19.6083 -8.12468 25.2333 3.4827 
51.8847 96.704 7.93814 -0.539393 -1.7438 0.688944 0.404161 -0.208842 -0.265868 0.799733 3.58305 -0.568089 0.807579 5.228 -0.582028 -1.99037 12.0388 0.641919 1.60978 15.5748 0.0738431 76.6103 -4.54724 -3.96487 92.818 16.5997 13.6628 -3.69505e-006 -7.03947e-007 1.0489e-006 6.53038 14.5528 -1.82595 -7.46894e-006 -2.31496e-006 -3 8.02944 -4.9514 0.697654 -61.4831 -1.47714 1.20361 -109.139 15.1173 -4.53317 7.55382e-015 6.36111e-015 -0 -6.41825 5.35081 1.11319 6.38952e-006 2.11069e-006 3 -8.02942 -4.95144 -0.697666 177.914 1.90421 1.46076 180 7.01523e-015 178.824 179.859 9.59206 179.36 -1.95755e-006 -6.86802e-006 0.0883275 -18.3433 67.3673 19.0254 8.12596 25.2332 -3.48325 -174.74 0.0405994 -1.79217 4.5067e-006 -1.99009e-005 -1.14424 -2.29616 -7.37235 0.0408487 3.64242e-006 -1.1545e-006 -0.101433 18.8441 68.1119 -19.6139 -8.12468 25.2333 3.4827 
51.8776 96.7002 7.91009 -0.539081 -1.70653 0.677476 0.404161 -0.204552 -0.265875 0.800733 3.59163 -0.56891 0.808595 5.23658 -0.582871 -2.03338 12.0153 0.645625 1.63566 15.5843 0.0655505 76.5716 -4.54216 -3.96043 92.8731 16.5387 13.5809 -3.69505e-006 -7.03947e-007 1.0489e-006 6.58273 14.6885 -1.84163 -7.46894e-006 -2.31496e-006 -3 8.02944 -4.9514 0.697654 -61.483 -1.47416 1.20187 -109.143 15.0585 -4.50368 -3.65764e-014 -3.18055e-015 -5.56597e-015 -6.45978 5.41965 1.11779 6.38952e-006 2.11069e-006 3 -8.02942 -4.95144 -0.697666 177.926 1.98353 1.43797 180 7.01523e-015 178.825 179.874 9.64491 179.356 -1.95755e-006 -6.86802e-006 0.0883368 -18.3384 67.3611 19.0204 8.12596 25.2332 -3.48325 -174.74 0.111404 -1.78766 4.5067e-006 -1.99009e-005 -1.14372 -2.29331 -7.41981 0.0409306 3.64242e-006 -1.1545e-006 -0.10226 18.8492 68.1179 -19.6194 -8.12468 25.2333 3.4827 
51.8816 96.6994 7.89725 -0.538229 -1.66951 0.666596 0.404161 -0.200151 -0.265852 0.801673 3.60043 -0.569634 0.80955 5.24538 -0.583616 -2.07685 11.9938 0.648985 1.66135 15.5915 0.0568043 76.5325 -4.53722 -3.95601 92.9284 16.48 13.5015 -3.69505e-006 -7.03947e-007 1.0489e-006 6.63273 14.8202 -1.85683 -7.46894e-006 -2.31496e-006 -3 8.02944 -4.9514 0.697654 -61.4839 -1.47125 1.20027 -109.147 15.0023 -4.47341 -3.1408e-014 -1.59028e-015 -3.97569e-015 -6.50126 5.48758 1.12239 6.38952e-006 2.11069e-006 3 -8.02942 -4.95144 -0.697666 177.939 2.06294 1.4154 180 7.01524e-015 178.826 179.89 9.69823 179.352 -1.95755e-006 -6.86802e-006 0.0883591 -18.3336 67.355 19.0154 8.12596 25.2332 -3.48325 -174.74 0.182586 -1.78278 4.5067e-006 -1.99009e-005 -1.14317 -2.2904 -7.46805 0.0410854 3.64242e-006 -1.1545e-006 -0.103098 18.8542 68.1238 -19.6248 -8.12468 25.2333 3.4827 
51.8757 96.6955 7.88194 -0.536762 -1.63277 0.65639 0.404161 -0.195624 -0.265793 0.802543 3.60948 -0.570245 0.810435 5.25443 -0.584247 -2.12083 11.9743 0.651947 1.68682 15.596 0.0475366 76.4926 -4.53244 -3.95162 92.984 16.424 13.4248 -3.69505e-006 -7.03947e-007 1.0489e-006 6.68003 14.9471 -1.87149 -7.46894e-006 -2.31496e-006 -3 8.02944 -4.9514 0.697654 -61.4861 -1.4684 1.19884 -109.15 14.9491 -4.44223 -3.97569e-016 1.59028e-015 -0 -6.54267 5.55447 1.127 6.38952e-006 2.11069e-006 3 -8.02942 -4.95144 -0.697666 177.95 2.14245 1.39308 180 7.01524e-015 178.826 179.905 9.75208 179.348 -1.95755e-006 -6.86802e-006 0.0883962 -18.3288 67.349 19.0105 8.12596 25.2332 -3.48325 -174.741 0.254203 -1.77746 4.5067e-006 -1.99009e-005 -1.14257 -2.2874 -7.51722 0.0413243 3.64242e-006 -1.1545e-006 -0.10395 18.859 68.1295 -19.6301 -8.12468 25.2333 3.4827 
